<svg xmlns="http://www.w3.org/2000/svg" xmlns:xlink="http://www.w3.org/1999/xlink" width="258" zoomAndPan="magnify" viewBox="0 0 193.5 99.749997" height="133" preserveAspectRatio="xMidYMid meet" version="1.0"><defs><g/><clipPath id="d2ced1d773"><path d="M 140 31 L 151 31 L 151 45 L 140 45 Z M 140 31 " clip-rule="nonzero"/></clipPath><clipPath id="dfe2a9d60c"><path d="M 136.558594 31.09375 L 162.984375 20.625 L 170.425781 39.402344 L 143.996094 49.871094 Z M 136.558594 31.09375 " clip-rule="nonzero"/></clipPath><clipPath id="61ecdd133e"><path d="M 136.558594 31.09375 L 162.984375 20.625 L 170.425781 39.402344 L 143.996094 49.871094 Z M 136.558594 31.09375 " clip-rule="nonzero"/></clipPath><clipPath id="60179f6774"><path d="M 156 26 L 167 26 L 167 40 L 156 40 Z M 156 26 " clip-rule="nonzero"/></clipPath><clipPath id="6cb9ed6e69"><path d="M 136.558594 31.09375 L 162.984375 20.625 L 170.425781 39.402344 L 143.996094 49.871094 Z M 136.558594 31.09375 " clip-rule="nonzero"/></clipPath><clipPath id="5495810620"><path d="M 136.558594 31.09375 L 162.984375 20.625 L 170.425781 39.402344 L 143.996094 49.871094 Z M 136.558594 31.09375 " clip-rule="nonzero"/></clipPath><clipPath id="09fca0a577"><path d="M 151 24 L 156 24 L 156 46 L 151 46 Z M 151 24 " clip-rule="nonzero"/></clipPath><clipPath id="5e36802964"><path d="M 136.558594 31.09375 L 162.984375 20.625 L 170.425781 39.402344 L 143.996094 49.871094 Z M 136.558594 31.09375 " clip-rule="nonzero"/></clipPath><clipPath id="73e8f01bfc"><path d="M 136.558594 31.09375 L 162.984375 20.625 L 170.425781 39.402344 L 143.996094 49.871094 Z M 136.558594 31.09375 " clip-rule="nonzero"/></clipPath></defs><g fill="#ffffff" fill-opacity="1"><g transform="translate(54.357405, 46.744348)"><g><path d="M 2.296875 0 C 2.117188 0 1.960938 -0.0625 1.828125 -0.1875 C 1.703125 -0.320312 1.640625 -0.476562 1.640625 -0.65625 L 1.640625 -27.28125 C 1.640625 -27.457031 1.703125 -27.609375 1.828125 -27.734375 C 1.960938 -27.867188 2.117188 -27.9375 2.296875 -27.9375 L 20.875 -27.9375 C 21.050781 -27.9375 21.203125 -27.867188 21.328125 -27.734375 C 21.460938 -27.609375 21.53125 -27.457031 21.53125 -27.28125 L 21.53125 -24.984375 C 21.53125 -24.804688 21.460938 -24.648438 21.328125 -24.515625 C 21.203125 -24.390625 21.050781 -24.328125 20.875 -24.328125 L 5.921875 -24.328125 C 5.742188 -24.328125 5.585938 -24.257812 5.453125 -24.125 C 5.328125 -24 5.265625 -23.847656 5.265625 -23.671875 L 5.265625 -16.4375 C 5.265625 -16.257812 5.328125 -16.101562 5.453125 -15.96875 C 5.585938 -15.84375 5.742188 -15.78125 5.921875 -15.78125 L 19.890625 -15.78125 C 20.066406 -15.78125 20.21875 -15.710938 20.34375 -15.578125 C 20.476562 -15.453125 20.546875 -15.300781 20.546875 -15.125 L 20.546875 -12.828125 C 20.546875 -12.648438 20.476562 -12.492188 20.34375 -12.359375 C 20.21875 -12.222656 20.066406 -12.15625 19.890625 -12.15625 L 5.921875 -12.15625 C 5.742188 -12.15625 5.585938 -12.085938 5.453125 -11.953125 C 5.328125 -11.828125 5.265625 -11.675781 5.265625 -11.5 L 5.265625 -4.28125 C 5.265625 -4.101562 5.328125 -3.945312 5.453125 -3.8125 C 5.585938 -3.675781 5.742188 -3.609375 5.921875 -3.609375 L 20.875 -3.609375 C 21.050781 -3.609375 21.203125 -3.539062 21.328125 -3.40625 C 21.460938 -3.28125 21.53125 -3.128906 21.53125 -2.953125 L 21.53125 -0.65625 C 21.53125 -0.476562 21.460938 -0.320312 21.328125 -0.1875 C 21.203125 -0.0625 21.050781 0 20.875 0 Z M 2.296875 0 "/></g></g></g><g fill="#ffffff" fill-opacity="1"><g transform="translate(77.036427, 46.744348)"><g><path d="M 2.265625 0 C 1.804688 0 1.597656 -0.21875 1.640625 -0.65625 L 1.640625 -20.09375 C 1.640625 -20.53125 1.859375 -20.75 2.296875 -20.75 L 4.609375 -20.75 C 5.046875 -20.75 5.265625 -20.53125 5.265625 -20.09375 C 5.265625 -19.800781 5.394531 -19.65625 5.65625 -19.65625 C 5.757812 -19.65625 5.890625 -19.691406 6.046875 -19.765625 C 6.640625 -20.066406 7.28125 -20.304688 7.96875 -20.484375 C 8.65625 -20.660156 9.375 -20.75 10.125 -20.75 L 11.171875 -20.75 C 12.796875 -20.75 14.25 -20.375 15.53125 -19.625 C 16.8125 -18.882812 17.820312 -17.867188 18.5625 -16.578125 C 19.3125 -15.296875 19.6875 -13.847656 19.6875 -12.234375 L 19.6875 -0.65625 C 19.6875 -0.21875 19.46875 0 19.03125 0 L 16.734375 0 C 16.296875 0 16.078125 -0.21875 16.078125 -0.65625 L 16.078125 -12.234375 C 16.078125 -13.648438 15.613281 -14.816406 14.6875 -15.734375 C 13.769531 -16.660156 12.597656 -17.125 11.171875 -17.125 L 10.125 -17.125 C 8.789062 -17.125 7.644531 -16.695312 6.6875 -15.84375 C 5.738281 -14.988281 5.253906 -13.785156 5.234375 -12.234375 L 5.234375 -0.65625 C 5.234375 -0.21875 5.007812 0 4.5625 0 Z M 2.265625 0 "/></g></g></g><g fill="#ffffff" fill-opacity="1"><g transform="translate(98.039181, 46.744348)"><g><path d="M 1.484375 0 C 1.046875 0 0.828125 -0.21875 0.828125 -0.65625 L 0.828125 -3.8125 C 0.828125 -4.125 0.945312 -4.398438 1.1875 -4.640625 L 13.515625 -16.3125 C 13.660156 -16.457031 13.734375 -16.609375 13.734375 -16.765625 C 13.734375 -17.003906 13.550781 -17.125 13.1875 -17.125 L 1.484375 -17.125 C 1.046875 -17.125 0.828125 -17.34375 0.828125 -17.78125 L 0.828125 -20.09375 C 0.828125 -20.53125 1.046875 -20.75 1.484375 -20.75 L 18.25 -20.75 C 18.6875 -20.75 18.90625 -20.53125 18.90625 -20.09375 L 18.90625 -16.9375 C 18.90625 -16.625 18.785156 -16.347656 18.546875 -16.109375 L 6.21875 -4.4375 C 6.0625 -4.28125 5.984375 -4.128906 5.984375 -3.984375 C 5.984375 -3.734375 6.171875 -3.609375 6.546875 -3.609375 L 18.25 -3.609375 C 18.6875 -3.609375 18.90625 -3.390625 18.90625 -2.953125 L 18.90625 -0.65625 C 18.90625 -0.21875 18.6875 0 18.25 0 Z M 1.484375 0 "/></g></g></g><g fill="#ffffff" fill-opacity="1"><g transform="translate(117.760077, 46.744348)"><g><path d="M 9.671875 0 C 8.046875 0 6.59375 -0.367188 5.3125 -1.109375 C 4.03125 -1.859375 3.015625 -2.875 2.265625 -4.15625 C 1.523438 -5.4375 1.15625 -6.890625 1.15625 -8.515625 L 1.15625 -12.234375 C 1.15625 -13.847656 1.523438 -15.296875 2.265625 -16.578125 C 3.015625 -17.867188 4.03125 -18.882812 5.3125 -19.625 C 6.59375 -20.375 8.046875 -20.75 9.671875 -20.75 L 10.71875 -20.75 C 12.34375 -20.75 13.796875 -20.375 15.078125 -19.625 C 16.359375 -18.882812 17.367188 -17.867188 18.109375 -16.578125 C 18.859375 -15.296875 19.234375 -13.847656 19.234375 -12.234375 L 19.234375 -8.515625 C 19.234375 -6.890625 18.859375 -5.4375 18.109375 -4.15625 C 17.367188 -2.875 16.359375 -1.859375 15.078125 -1.109375 C 13.796875 -0.367188 12.34375 0 10.71875 0 Z M 9.671875 -3.609375 L 10.71875 -3.609375 C 12.144531 -3.609375 13.316406 -4.066406 14.234375 -4.984375 C 15.148438 -5.910156 15.609375 -7.085938 15.609375 -8.515625 L 15.609375 -12.234375 C 15.609375 -13.648438 15.148438 -14.816406 14.234375 -15.734375 C 13.316406 -16.660156 12.144531 -17.125 10.71875 -17.125 L 9.671875 -17.125 C 8.242188 -17.125 7.066406 -16.660156 6.140625 -15.734375 C 5.222656 -14.816406 4.765625 -13.648438 4.765625 -12.234375 L 4.765625 -8.515625 C 4.765625 -7.085938 5.222656 -5.910156 6.140625 -4.984375 C 7.066406 -4.066406 8.242188 -3.609375 9.671875 -3.609375 Z M 9.671875 -3.609375 "/></g></g></g><g fill="#38e6fb" fill-opacity="1"><g transform="translate(16.907302, 73.674759)"><g><path d="M 2.296875 0 C 2.117188 0 1.960938 -0.0625 1.828125 -0.1875 C 1.703125 -0.320312 1.640625 -0.476562 1.640625 -0.65625 L 1.640625 -27.3125 C 1.640625 -27.488281 1.703125 -27.644531 1.828125 -27.78125 C 1.960938 -27.914062 2.117188 -27.984375 2.296875 -27.984375 L 5.453125 -27.984375 C 5.722656 -27.984375 5.898438 -27.882812 5.984375 -27.6875 L 17.390625 -6.515625 C 17.523438 -6.265625 17.675781 -6.140625 17.84375 -6.140625 C 18.019531 -6.140625 18.175781 -6.265625 18.3125 -6.515625 L 29.71875 -27.6875 C 29.832031 -27.882812 30.007812 -27.984375 30.25 -27.984375 L 33.40625 -27.984375 C 33.582031 -27.984375 33.734375 -27.914062 33.859375 -27.78125 C 33.992188 -27.644531 34.0625 -27.488281 34.0625 -27.3125 L 34.0625 -0.65625 C 34.0625 -0.476562 33.992188 -0.320312 33.859375 -0.1875 C 33.734375 -0.0625 33.582031 0 33.40625 0 L 31.09375 0 C 30.925781 0 30.773438 -0.0625 30.640625 -0.1875 C 30.503906 -0.320312 30.4375 -0.476562 30.4375 -0.65625 L 30.4375 -19.796875 C 30.4375 -20.160156 30.328125 -20.34375 30.109375 -20.34375 C 29.929688 -20.34375 29.78125 -20.222656 29.65625 -19.984375 L 19.765625 -1.609375 C 19.648438 -1.410156 19.484375 -1.3125 19.265625 -1.3125 L 16.5 -1.25 C 16.257812 -1.25 16.085938 -1.359375 15.984375 -1.578125 L 6.046875 -19.984375 C 5.921875 -20.222656 5.769531 -20.34375 5.59375 -20.34375 C 5.375 -20.34375 5.265625 -20.160156 5.265625 -19.796875 L 5.265625 -0.65625 C 5.265625 -0.476562 5.195312 -0.320312 5.0625 -0.1875 C 4.925781 -0.0625 4.773438 0 4.609375 0 Z M 2.296875 0 "/></g></g></g><g fill="#38e6fb" fill-opacity="1"><g transform="translate(52.602114, 73.674759)"><g><path d="M 9.671875 0 C 8.046875 0 6.59375 -0.367188 5.3125 -1.109375 C 4.03125 -1.859375 3.015625 -2.875 2.265625 -4.15625 C 1.523438 -5.4375 1.15625 -6.890625 1.15625 -8.515625 L 1.15625 -12.234375 C 1.15625 -13.847656 1.523438 -15.296875 2.265625 -16.578125 C 3.015625 -17.867188 4.03125 -18.882812 5.3125 -19.625 C 6.59375 -20.375 8.046875 -20.75 9.671875 -20.75 L 10.71875 -20.75 C 12.34375 -20.75 13.796875 -20.375 15.078125 -19.625 C 16.359375 -18.882812 17.367188 -17.867188 18.109375 -16.578125 C 18.859375 -15.296875 19.234375 -13.847656 19.234375 -12.234375 L 19.234375 -9.40625 C 19.234375 -8.96875 19.015625 -8.75 18.578125 -8.75 L 5.421875 -8.75 C 4.984375 -8.75 4.773438 -8.515625 4.796875 -8.046875 C 4.929688 -6.671875 5.445312 -5.585938 6.34375 -4.796875 C 7.238281 -4.003906 8.347656 -3.609375 9.671875 -3.609375 L 10.71875 -3.609375 C 11.613281 -3.609375 12.414062 -3.796875 13.125 -4.171875 C 13.84375 -4.546875 14.410156 -5.0625 14.828125 -5.71875 C 15.003906 -6.03125 15.265625 -6.1875 15.609375 -6.1875 L 18.140625 -6.1875 C 18.535156 -6.1875 18.734375 -6.019531 18.734375 -5.6875 C 18.734375 -5.570312 18.722656 -5.484375 18.703125 -5.421875 C 18.109375 -3.828125 17.097656 -2.523438 15.671875 -1.515625 C 14.253906 -0.503906 12.601562 0 10.71875 0 Z M 5.453125 -12.359375 L 14.921875 -12.359375 C 15.410156 -12.359375 15.617188 -12.585938 15.546875 -13.046875 C 15.390625 -14.273438 14.867188 -15.257812 13.984375 -16 C 13.097656 -16.75 12.007812 -17.125 10.71875 -17.125 L 9.671875 -17.125 C 8.367188 -17.125 7.28125 -16.75 6.40625 -16 C 5.53125 -15.257812 5.003906 -14.273438 4.828125 -13.046875 L 4.828125 -12.921875 C 4.828125 -12.546875 5.035156 -12.359375 5.453125 -12.359375 Z M 5.453125 -12.359375 "/></g></g></g><g fill="#38e6fb" fill-opacity="1"><g transform="translate(72.980364, 73.674759)"><g><path d="M 9.671875 0 C 8.046875 0 6.59375 -0.367188 5.3125 -1.109375 C 4.03125 -1.859375 3.015625 -2.875 2.265625 -4.15625 C 1.523438 -5.4375 1.15625 -6.890625 1.15625 -8.515625 L 1.15625 -12.234375 C 1.15625 -13.847656 1.523438 -15.296875 2.265625 -16.578125 C 3.015625 -17.867188 4.03125 -18.882812 5.3125 -19.625 C 6.59375 -20.375 8.046875 -20.75 9.671875 -20.75 L 10.71875 -20.75 C 11.488281 -20.75 12.210938 -20.660156 12.890625 -20.484375 C 13.566406 -20.304688 14.210938 -20.066406 14.828125 -19.765625 C 14.960938 -19.691406 15.082031 -19.65625 15.1875 -19.65625 C 15.46875 -19.65625 15.609375 -19.832031 15.609375 -20.1875 L 15.609375 -27.28125 C 15.609375 -27.71875 15.828125 -27.9375 16.265625 -27.9375 L 18.578125 -27.9375 C 19.015625 -27.9375 19.234375 -27.71875 19.234375 -27.28125 L 19.234375 -0.65625 C 19.234375 -0.21875 19.015625 0 18.578125 0 L 16.265625 0 C 15.828125 0 15.609375 -0.21875 15.609375 -0.65625 L 15.609375 -0.71875 C 15.609375 -0.988281 15.488281 -1.125 15.25 -1.125 C 15.1875 -1.125 15.117188 -1.109375 15.046875 -1.078125 C 14.984375 -1.054688 14.910156 -1.023438 14.828125 -0.984375 C 14.210938 -0.679688 13.566406 -0.441406 12.890625 -0.265625 C 12.210938 -0.0859375 11.488281 0 10.71875 0 Z M 9.671875 -3.609375 L 10.71875 -3.609375 C 12.144531 -3.609375 13.316406 -4.066406 14.234375 -4.984375 C 15.148438 -5.910156 15.609375 -7.085938 15.609375 -8.515625 L 15.609375 -12.234375 C 15.609375 -13.648438 15.148438 -14.816406 14.234375 -15.734375 C 13.316406 -16.660156 12.144531 -17.125 10.71875 -17.125 L 9.671875 -17.125 C 8.242188 -17.125 7.066406 -16.660156 6.140625 -15.734375 C 5.222656 -14.816406 4.765625 -13.648438 4.765625 -12.234375 L 4.765625 -8.515625 C 4.765625 -7.085938 5.222656 -5.910156 6.140625 -4.984375 C 7.066406 -4.066406 8.242188 -3.609375 9.671875 -3.609375 Z M 9.671875 -3.609375 "/></g></g></g><g fill="#38e6fb" fill-opacity="1"><g transform="translate(93.851645, 73.674759)"><g><path d="M 9.671875 0 C 8.046875 0 6.59375 -0.367188 5.3125 -1.109375 C 4.03125 -1.859375 3.015625 -2.875 2.265625 -4.15625 C 1.523438 -5.4375 1.15625 -6.890625 1.15625 -8.515625 L 1.15625 -12.234375 C 1.15625 -13.847656 1.523438 -15.296875 2.265625 -16.578125 C 3.015625 -17.867188 4.03125 -18.882812 5.3125 -19.625 C 6.59375 -20.375 8.046875 -20.75 9.671875 -20.75 L 10.71875 -20.75 C 12.34375 -20.75 13.796875 -20.375 15.078125 -19.625 C 16.359375 -18.882812 17.367188 -17.867188 18.109375 -16.578125 C 18.859375 -15.296875 19.234375 -13.847656 19.234375 -12.234375 L 19.234375 -9.40625 C 19.234375 -8.96875 19.015625 -8.75 18.578125 -8.75 L 5.421875 -8.75 C 4.984375 -8.75 4.773438 -8.515625 4.796875 -8.046875 C 4.929688 -6.671875 5.445312 -5.585938 6.34375 -4.796875 C 7.238281 -4.003906 8.347656 -3.609375 9.671875 -3.609375 L 10.71875 -3.609375 C 11.613281 -3.609375 12.414062 -3.796875 13.125 -4.171875 C 13.84375 -4.546875 14.410156 -5.0625 14.828125 -5.71875 C 15.003906 -6.03125 15.265625 -6.1875 15.609375 -6.1875 L 18.140625 -6.1875 C 18.535156 -6.1875 18.734375 -6.019531 18.734375 -5.6875 C 18.734375 -5.570312 18.722656 -5.484375 18.703125 -5.421875 C 18.109375 -3.828125 17.097656 -2.523438 15.671875 -1.515625 C 14.253906 -0.503906 12.601562 0 10.71875 0 Z M 5.453125 -12.359375 L 14.921875 -12.359375 C 15.410156 -12.359375 15.617188 -12.585938 15.546875 -13.046875 C 15.390625 -14.273438 14.867188 -15.257812 13.984375 -16 C 13.097656 -16.75 12.007812 -17.125 10.71875 -17.125 L 9.671875 -17.125 C 8.367188 -17.125 7.28125 -16.75 6.40625 -16 C 5.53125 -15.257812 5.003906 -14.273438 4.828125 -13.046875 L 4.828125 -12.921875 C 4.828125 -12.546875 5.035156 -12.359375 5.453125 -12.359375 Z M 5.453125 -12.359375 "/></g></g></g><g fill="#38e6fb" fill-opacity="1"><g transform="translate(114.229896, 73.674759)"><g><path d="M 2.296875 -23.140625 C 2.117188 -23.140625 1.960938 -23.203125 1.828125 -23.328125 C 1.703125 -23.460938 1.640625 -23.617188 1.640625 -23.796875 L 1.640625 -27.28125 C 1.640625 -27.457031 1.703125 -27.609375 1.828125 -27.734375 C 1.960938 -27.867188 2.117188 -27.9375 2.296875 -27.9375 L 5.921875 -27.9375 C 6.097656 -27.9375 6.25 -27.867188 6.375 -27.734375 C 6.507812 -27.609375 6.578125 -27.457031 6.578125 -27.28125 L 6.578125 -23.796875 C 6.578125 -23.617188 6.507812 -23.460938 6.375 -23.328125 C 6.25 -23.203125 6.097656 -23.140625 5.921875 -23.140625 Z M 2.953125 0 C 2.785156 0 2.632812 -0.0625 2.5 -0.1875 C 2.363281 -0.320312 2.296875 -0.476562 2.296875 -0.65625 L 2.296875 -20.09375 C 2.296875 -20.257812 2.363281 -20.410156 2.5 -20.546875 C 2.632812 -20.679688 2.785156 -20.75 2.953125 -20.75 L 5.265625 -20.75 C 5.429688 -20.75 5.582031 -20.679688 5.71875 -20.546875 C 5.851562 -20.410156 5.921875 -20.257812 5.921875 -20.09375 L 5.921875 -0.65625 C 5.921875 -0.476562 5.851562 -0.320312 5.71875 -0.1875 C 5.582031 -0.0625 5.429688 0 5.265625 0 Z M 2.953125 0 "/></g></g></g><g fill="#38e6fb" fill-opacity="1"><g transform="translate(122.446932, 73.674759)"><g><path d="M 2.296875 0 C 1.859375 0 1.640625 -0.21875 1.640625 -0.65625 L 1.640625 -20.09375 C 1.640625 -20.53125 1.859375 -20.75 2.296875 -20.75 L 4.609375 -20.75 C 5.046875 -20.75 5.265625 -20.53125 5.265625 -20.09375 L 5.265625 -19.890625 C 5.265625 -19.535156 5.394531 -19.359375 5.65625 -19.359375 C 5.757812 -19.359375 5.890625 -19.40625 6.046875 -19.5 C 7.253906 -20.332031 8.613281 -20.75 10.125 -20.75 L 11.171875 -20.75 C 11.609375 -20.75 11.828125 -20.53125 11.828125 -20.09375 L 11.828125 -17.78125 C 11.828125 -17.34375 11.609375 -17.125 11.171875 -17.125 L 10.125 -17.125 C 8.789062 -17.125 7.675781 -16.726562 6.78125 -15.9375 C 5.894531 -15.15625 5.390625 -14.128906 5.265625 -12.859375 L 5.265625 -0.65625 C 5.265625 -0.21875 5.046875 0 4.609375 0 Z M 2.296875 0 "/></g></g></g><g fill="#38e6fb" fill-opacity="1"><g transform="translate(135.265513, 73.674759)"><g><path d="M 9.671875 0 C 8.046875 0 6.59375 -0.367188 5.3125 -1.109375 C 4.03125 -1.859375 3.015625 -2.875 2.265625 -4.15625 C 1.523438 -5.4375 1.15625 -6.890625 1.15625 -8.515625 L 1.15625 -12.234375 C 1.15625 -13.847656 1.523438 -15.296875 2.265625 -16.578125 C 3.015625 -17.867188 4.03125 -18.882812 5.3125 -19.625 C 6.59375 -20.375 8.046875 -20.75 9.671875 -20.75 L 10.71875 -20.75 C 12.34375 -20.75 13.796875 -20.375 15.078125 -19.625 C 16.359375 -18.882812 17.367188 -17.867188 18.109375 -16.578125 C 18.859375 -15.296875 19.234375 -13.847656 19.234375 -12.234375 L 19.234375 -8.515625 C 19.234375 -6.890625 18.859375 -5.4375 18.109375 -4.15625 C 17.367188 -2.875 16.359375 -1.859375 15.078125 -1.109375 C 13.796875 -0.367188 12.34375 0 10.71875 0 Z M 9.671875 -3.609375 L 10.71875 -3.609375 C 12.144531 -3.609375 13.316406 -4.066406 14.234375 -4.984375 C 15.148438 -5.910156 15.609375 -7.085938 15.609375 -8.515625 L 15.609375 -12.234375 C 15.609375 -13.648438 15.148438 -14.816406 14.234375 -15.734375 C 13.316406 -16.660156 12.144531 -17.125 10.71875 -17.125 L 9.671875 -17.125 C 8.242188 -17.125 7.066406 -16.660156 6.140625 -15.734375 C 5.222656 -14.816406 4.765625 -13.648438 4.765625 -12.234375 L 4.765625 -8.515625 C 4.765625 -7.085938 5.222656 -5.910156 6.140625 -4.984375 C 7.066406 -4.066406 8.242188 -3.609375 9.671875 -3.609375 Z M 9.671875 -3.609375 "/></g></g></g><g fill="#38e6fb" fill-opacity="1"><g transform="translate(155.643763, 73.674759)"><g><path d="M 6.8125 0 C 5.707031 0 4.710938 -0.25 3.828125 -0.75 C 2.941406 -1.257812 2.242188 -1.957031 1.734375 -2.84375 C 1.234375 -3.726562 0.984375 -4.71875 0.984375 -5.8125 L 0.984375 -6.46875 C 0.984375 -6.644531 1.046875 -6.800781 1.171875 -6.9375 C 1.304688 -7.070312 1.460938 -7.140625 1.640625 -7.140625 L 3.9375 -7.140625 C 4.113281 -7.140625 4.269531 -7.070312 4.40625 -6.9375 C 4.539062 -6.800781 4.609375 -6.644531 4.609375 -6.46875 L 4.609375 -5.8125 C 4.609375 -5.132812 4.800781 -4.597656 5.1875 -4.203125 C 5.582031 -3.804688 6.125 -3.609375 6.8125 -3.609375 L 13.15625 -3.609375 C 13.832031 -3.609375 14.367188 -3.765625 14.765625 -4.078125 C 15.160156 -4.398438 15.359375 -4.804688 15.359375 -5.296875 L 15.359375 -5.75 C 15.359375 -6.257812 15.21875 -6.679688 14.9375 -7.015625 C 14.664062 -7.359375 14.289062 -7.570312 13.8125 -7.65625 L 5.359375 -9.53125 C 4.066406 -9.84375 3.015625 -10.492188 2.203125 -11.484375 C 1.390625 -12.484375 0.984375 -13.648438 0.984375 -14.984375 C 0.984375 -16.085938 1.234375 -17.070312 1.734375 -17.9375 C 2.242188 -18.800781 2.941406 -19.484375 3.828125 -19.984375 C 4.710938 -20.492188 5.707031 -20.75 6.8125 -20.75 L 13.15625 -20.75 C 14.269531 -20.75 15.265625 -20.515625 16.140625 -20.046875 C 17.015625 -19.585938 17.703125 -18.957031 18.203125 -18.15625 C 18.710938 -17.363281 18.96875 -16.460938 18.96875 -15.453125 L 18.96875 -13.9375 C 18.96875 -13.757812 18.898438 -13.601562 18.765625 -13.46875 C 18.640625 -13.34375 18.488281 -13.28125 18.3125 -13.28125 L 16.015625 -13.28125 C 15.835938 -13.28125 15.679688 -13.34375 15.546875 -13.46875 C 15.421875 -13.601562 15.359375 -13.757812 15.359375 -13.9375 L 15.359375 -15.453125 C 15.359375 -15.953125 15.160156 -16.351562 14.765625 -16.65625 C 14.367188 -16.96875 13.832031 -17.125 13.15625 -17.125 L 6.8125 -17.125 C 6.144531 -17.125 5.609375 -16.925781 5.203125 -16.53125 C 4.804688 -16.132812 4.609375 -15.617188 4.609375 -14.984375 C 4.609375 -14.503906 4.742188 -14.09375 5.015625 -13.75 C 5.285156 -13.414062 5.660156 -13.191406 6.140625 -13.078125 L 14.59375 -11.203125 C 15.882812 -10.921875 16.9375 -10.273438 17.75 -9.265625 C 18.5625 -8.265625 18.96875 -7.09375 18.96875 -5.75 L 18.96875 -5.296875 C 18.96875 -4.285156 18.710938 -3.378906 18.203125 -2.578125 C 17.703125 -1.773438 17.015625 -1.144531 16.140625 -0.6875 C 15.265625 -0.226562 14.269531 0 13.15625 0 Z M 6.8125 0 "/></g></g></g><g clip-path="url(#d2ced1d773)"><g clip-path="url(#dfe2a9d60c)"><g clip-path="url(#61ecdd133e)"><path fill="#2be1f5" d="M 149.652344 44.433594 C 149.257812 44.589844 148.941406 44.5625 148.578125 44.402344 L 141.246094 41.230469 C 140.515625 40.914062 140.203125 40.128906 140.519531 39.394531 L 143.6875 32.066406 C 144.003906 31.332031 144.792969 31.019531 145.527344 31.335938 C 146.257812 31.65625 146.570312 32.441406 146.253906 33.175781 L 143.640625 39.222656 L 149.6875 41.835938 C 150.417969 42.152344 150.730469 42.941406 150.414062 43.675781 C 150.253906 44.039062 150.042969 44.277344 149.652344 44.433594 Z M 149.652344 44.433594 " fill-opacity="1" fill-rule="nonzero"/></g></g></g><g clip-path="url(#60179f6774)"><g clip-path="url(#6cb9ed6e69)"><g clip-path="url(#5495810620)"><path fill="#2be1f5" d="M 162.777344 39.230469 C 162.382812 39.386719 162.066406 39.359375 161.699219 39.203125 C 160.96875 38.886719 160.65625 38.097656 160.972656 37.363281 L 163.589844 31.316406 L 157.539062 28.703125 C 156.808594 28.386719 156.496094 27.597656 156.8125 26.867188 C 157.128906 26.132812 157.917969 25.820312 158.652344 26.136719 L 165.980469 29.308594 C 166.714844 29.625 167.023438 30.410156 166.707031 31.144531 L 163.539062 38.472656 C 163.378906 38.839844 163.167969 39.078125 162.777344 39.230469 Z M 162.777344 39.230469 " fill-opacity="1" fill-rule="nonzero"/></g></g></g><g clip-path="url(#09fca0a577)"><g clip-path="url(#5e36802964)"><g clip-path="url(#73e8f01bfc)"><path fill="#2be1f5" d="M 154.628906 45.496094 C 154.496094 45.550781 154.367188 45.601562 154.183594 45.523438 C 153.421875 45.519531 152.769531 45.019531 152.71875 44.128906 L 151.730469 26.296875 C 151.730469 25.539062 152.230469 24.882812 153.125 24.835938 C 153.882812 24.835938 154.539062 25.335938 154.585938 26.230469 L 155.578125 44.058594 C 155.523438 44.6875 155.152344 45.289062 154.628906 45.496094 Z M 154.628906 45.496094 " fill-opacity="1" fill-rule="nonzero"/></g></g></g></svg>